<svg xmlns="http://www.w3.org/2000/svg" width="23.902" height="24.707" viewBox="0 0 23.902 24.707">
  <g id="Сгруппировать_1" data-name="Сгруппировать 1" transform="translate(0)">
    <ellipse id="Эллипс_1" data-name="Эллипс 1" cx="2.921" cy="2.921" rx="2.921" ry="2.921" transform="translate(6.587 18.865)"/>
    <path id="Контур_5" data-name="Контур 5" d="M269.418,324.1h0a2.921,2.921,0,1,0,2.921,2.921A2.921,2.921,0,0,0,269.418,324.1Z" transform="translate(-251.387 -305.232)"/>
    <path id="Контур_6" data-name="Контур 6" d="M29.921,15.885H14.692l-.3-1.729H26.911a.894.894,0,0,0,.834-.566l2.98-7.51a.894.894,0,0,0-.834-1.222H12.844L12.129.745A.894.894,0,0,0,11.234,0H7.807a.894.894,0,1,0,0,1.788h2.682l2.563,15.14a.894.894,0,0,0,.894.745H29.921a.894.894,0,1,0,0-1.788Z" transform="translate(-6.913 0.001)"/>
  </g>
</svg>
