<svg xmlns="http://www.w3.org/2000/svg" width="70.404" height="78.527" viewBox="0 0 70.404 78.527">
  <g id="Flat" transform="translate(-6 -3)">
    <g id="Stroke_copy_2" data-name="Stroke copy 2" transform="translate(6 3)">
      <g id="Сгруппировать_7" data-name="Сгруппировать 7">
        <g id="Сгруппировать_2" data-name="Сгруппировать 2" transform="translate(4.062)">
          <path id="Контур_1" data-name="Контур 1" d="M27.416,24.208H22V13.376a2.708,2.708,0,0,1,1.206-2.253L35.392,3l3,4.506L27.416,14.825Z" transform="translate(-4.399 -3)" fill="#f9e109"/>
          <path id="Контур_2" data-name="Контур 2" d="M38.4,6.971l-10.98,7.311v9.383H22V12.833a2.7,2.7,0,0,1,1.2-2.248l1.367-.921A7.243,7.243,0,0,0,31.1,8.649L36.771,4.52Z" transform="translate(-4.399 -2.462)" fill="#fcbc04"/>
          <path id="Контур_3" data-name="Контур 3" d="M44.2,73.387H14.416L9,26H49.618Z" transform="translate(-9 5.14)" fill="#f8664f"/>
          <path id="Контур_4" data-name="Контур 4" d="M11.708,22h35.2a2.708,2.708,0,0,1,2.708,2.708v2.708H9V24.708A2.708,2.708,0,0,1,11.708,22Z" transform="translate(-9 3.724)" fill="#84d2f4"/>
          <path id="Контур_5" data-name="Контур 5" d="M16.708,18H38.371a2.708,2.708,0,0,1,2.708,2.708v2.708H14V20.708A2.708,2.708,0,0,1,16.708,18Z" transform="translate(-7.23 2.309)" fill="#84d2f4"/>
          <path id="Контур_6" data-name="Контур 6" d="M49.157,30.062H18.477a46.232,46.232,0,0,0,29.15,13.4L44.2,73.387H14.416L9,26H49.618Z" transform="translate(-9 5.14)" fill="#cc5144"/>
          <g id="Сгруппировать_1" data-name="Сгруппировать 1" transform="translate(0 20.309)">
            <path id="Контур_7" data-name="Контур 7" d="M49.618,24.708v2.708H9V24.708A2.716,2.716,0,0,1,11.708,22a2.716,2.716,0,0,0,2.708,2.708Z" transform="translate(-9 -16.584)" fill="#57b7eb"/>
            <path id="Контур_8" data-name="Контур 8" d="M41.078,20.708v2.708H14V20.708A2.716,2.716,0,0,1,16.708,18a2.716,2.716,0,0,0,2.708,2.708Z" transform="translate(-7.23 -18)" fill="#57b7eb"/>
          </g>
        </g>
        <g id="Сгруппировать_3" data-name="Сгруппировать 3" transform="translate(28.432 26.266)">
          <path id="Контур_9" data-name="Контур 9" d="M46.062,23.212,43.354,57.06,42,71.953l6.77,1.354,4.062-48.741L48.77,22.4Z" transform="translate(-21.691 -22.4)" fill="#e59730"/>
          <path id="Контур_10" data-name="Контур 10" d="M39,29.416,41.708,61.91h8.124L47.124,28.062,43.062,24Z" transform="translate(-22.753 -21.834)" fill="#fcbc04"/>
          <path id="Контур_11" data-name="Контур 11" d="M49.831,61.05H41.708L39,28.556l1.6-2.126,2.464,19.727h1.354l1.476-8.611,1.232-.867.826.826Z" transform="translate(-22.753 -20.974)" fill="#e59730"/>
          <path id="Контур_12" data-name="Контур 12" d="M38.416,31.36,34.4,29.982,33,34.068l6.77,21.663,6.319-2.708Z" transform="translate(-24.876 -19.717)" fill="#f9e109"/>
          <path id="Контур_13" data-name="Контур 13" d="M46.092,53,39.77,55.707,33,34.044l1.381-3.994L36.859,37.5a24.009,24.009,0,0,0,7.663,11.075Z" transform="translate(-24.876 -19.693)" fill="#fcbc04"/>
          <path id="Контур_14" data-name="Контур 14" d="M56.444,24,50.921,49.724h5.523L60.505,30.77Z" transform="translate(-18.534 -21.834)" fill="#f9e109"/>
          <path id="Контур_15" data-name="Контур 15" d="M56.238,36.625,58.4,27.259,56.444,24,50.921,49.724h5.523l1.845-8.61a4.062,4.062,0,0,1-2.051-4.49Z" transform="translate(-18.534 -21.834)" fill="#fcbc04"/>
          <path id="Контур_16" data-name="Контур 16" d="M27,30l9.477,25.724,5.416-1.354L32.416,30Z" transform="translate(-27 -19.71)" fill="#f9e109"/>
          <path id="Контур_17" data-name="Контур 17" d="M27,30l9.477,25.724,2.708-.677L29.516,30Z" transform="translate(-27 -19.71)" fill="#fcbc04"/>
          <path id="Контур_18" data-name="Контур 18" d="M50.062,27,46,59.494l5.416-1.354,5.416-28.432Z" transform="translate(-20.276 -20.772)" fill="#f9e109"/>
          <path id="Контур_19" data-name="Контур 19" d="M53.744,45.914,51.416,58.14,46,59.494,50.062,27l2.627,1.056-1.083,15.2a2.513,2.513,0,0,0,2.139,2.654Z" transform="translate(-20.276 -20.772)" fill="#fcbc04"/>
          <path id="Контур_20" data-name="Контур 20" d="M49.416,58.371H44L45.354,34l5.416,1.354Z" transform="translate(-20.983 -18.295)" fill="#f9e109"/>
          <path id="Контур_21" data-name="Контур 21" d="M47.7,45.6,48,34.663,45.354,34,44,58.371h5.416l.532-9.036A4.062,4.062,0,0,1,47.7,45.6Z" transform="translate(-20.983 -18.295)" fill="#fcbc04"/>
          <path id="Контур_22" data-name="Контур 22" d="M61.14,39c0,5.234-5.455,9.477-12.185,9.477S36.77,44.234,36.77,39H30l4.062,29.786H63.848L67.91,39Z" transform="translate(-25.938 -16.525)" fill="#84d2f4"/>
          <path id="Контур_23" data-name="Контур 23" d="M64.593,63.371l-.745,5.416H34.062L30,39h6.77a8.275,8.275,0,0,0,2.8,6.038A21.651,21.651,0,0,0,60.978,63.371Z" transform="translate(-25.938 -16.525)" fill="#57b7eb"/>
          <circle id="Эллипс_1" data-name="Эллипс 1" cx="4" cy="4" r="4" transform="translate(18.77 38.998)" fill="#f9e109"/>
          <path id="Контур_24" data-name="Контур 24" d="M48.433,56.866A4.062,4.062,0,0,1,41,54.605a3.99,3.99,0,0,1,.731-2.315,21.6,21.6,0,0,0,6.7,4.576Z" transform="translate(-22.045 -11.821)" fill="#fcbc04"/>
        </g>
        <g id="Сгруппировать_6" data-name="Сгруппировать 6" transform="translate(0 40.618)">
          <path id="Контур_25" data-name="Контур 25" d="M37.786,53.831H13.416a5.416,5.416,0,1,1,0-10.831H37.786a5.416,5.416,0,1,1,0,10.831Z" transform="translate(-5.292 -29.461)" fill="#f89c8d"/>
          <path id="Контур_26" data-name="Контур 26" d="M40.5,51.124a5.322,5.322,0,0,0,2.22-.487,5.233,5.233,0,0,1-1.1,1.611,5.45,5.45,0,0,1-3.832,1.584H13.417a5.416,5.416,0,0,1-3.832-9.247,5.233,5.233,0,0,1,1.611-1.1A5.322,5.322,0,0,1,13.417,43H37.787a5.416,5.416,0,0,1,3.574,1.354,5.189,5.189,0,0,1,1.489,2.166A2.865,2.865,0,0,1,40.346,48a2.928,2.928,0,0,1-1.286-.3,2.811,2.811,0,0,0-2.546,0l-2.87,1.435a2.811,2.811,0,0,1-2.545,0L28.229,47.7a2.811,2.811,0,0,0-2.545,0l-2.87,1.435a2.811,2.811,0,0,1-2.545,0L17.4,47.7a2.811,2.811,0,0,0-2.545,0l-2.18,1.1a4.2,4.2,0,0,1-.785.284,5.394,5.394,0,0,0,4.238,2.044Z" transform="translate(-5.293 -29.461)" fill="#f8664f"/>
          <path id="Контур_27" data-name="Контур 27" d="M6,55H46.618v2.708A5.416,5.416,0,0,1,41.2,63.124H11.416A5.416,5.416,0,0,1,6,57.708Z" transform="translate(-6 -25.214)" fill="#fcbc04"/>
          <path id="Контур_28" data-name="Контур 28" d="M24.366,55l-1.083,1.354L22.2,55Z" transform="translate(-0.267 -25.214)" fill="#e59730"/>
          <path id="Контур_29" data-name="Контур 29" d="M24.366,55l-1.083,1.354L22.2,55Z" transform="translate(-0.267 -25.214)" fill="#e59730"/>
          <path id="Контур_30" data-name="Контур 30" d="M40.494,56.416H10.708a2.708,2.708,0,0,1,0-5.416H40.494a2.708,2.708,0,1,1,0,5.416Z" transform="translate(-5.292 -26.629)" fill="#cc5144"/>
          <path id="Контур_31" data-name="Контур 31" d="M25.416,57.77,20,51H30.831Z" transform="translate(-1.045 -26.629)" fill="#f7f754"/>
          <path id="Контур_32" data-name="Контур 32" d="M24.951,52.451,23.791,51H20l5.416,6.77,3.067-3.833a4.027,4.027,0,0,1-3.531-1.485Z" transform="translate(-1.045 -26.629)" fill="#f9e109"/>
          <path id="Контур_33" data-name="Контур 33" d="M7,43a4.379,4.379,0,0,0,2.423,3.919l1.033.517a4.376,4.376,0,0,0,3.918,0l2.178-1.083a2.859,2.859,0,0,1,2.556,0l2.859,1.43a2.859,2.859,0,0,0,2.556,0l2.859-1.43a2.859,2.859,0,0,1,2.556,0l2.859,1.43a2.859,2.859,0,0,0,2.556,0l2.859-1.43a2.859,2.859,0,0,1,2.556,0,2.859,2.859,0,0,0,4.138-2.562V43Z" transform="translate(-5.646 -29.461)" fill="#c4f236"/>
          <path id="Контур_34" data-name="Контур 34" d="M33.078,33H19.539A13.539,13.539,0,0,0,6,46.539H46.618A13.539,13.539,0,0,0,33.078,33Z" transform="translate(-6 -33)" fill="#fcbc04"/>
          <path id="Контур_35" data-name="Контур 35" d="M46.618,46.408H6A13.539,13.539,0,0,1,15.911,33.37a12.185,12.185,0,0,0,11.752,8.976H45.995a13.415,13.415,0,0,1,.623,4.062Z" transform="translate(-6 -32.869)" fill="#e59730"/>
          <path id="Контур_36" data-name="Контур 36" d="M46.618,57.708A5.416,5.416,0,0,1,41.2,63.124H11.416A5.416,5.416,0,0,1,6,57.708V55H8.884a5.4,5.4,0,0,0,5.24,4.062H42.556A6.69,6.69,0,0,0,46.618,57.708Z" transform="translate(-6 -25.214)" fill="#e59730"/>
          <path id="Контур_37" data-name="Контур 37" d="M44.91,43v.785a1.928,1.928,0,0,1-.068.569H9.3a4.14,4.14,0,0,0,1.476,1.2l1.029.528a4.446,4.446,0,0,0,3.926,0l2.18-1.1a2.811,2.811,0,0,1,2.545,0l2.87,1.435a2.811,2.811,0,0,0,2.545,0l2.87-1.435a2.811,2.811,0,0,1,2.545,0l2.87,1.435a2.811,2.811,0,0,0,2.545,0l2.87-1.435a2.811,2.811,0,0,1,2.545,0A2.843,2.843,0,0,0,44.639,45a2.869,2.869,0,0,1-2.586,1.638,2.928,2.928,0,0,1-1.286-.3,2.811,2.811,0,0,0-2.546,0l-2.87,1.435a2.811,2.811,0,0,1-2.545,0l-2.87-1.435a2.811,2.811,0,0,0-2.545,0l-2.87,1.435a2.811,2.811,0,0,1-2.545,0L19.1,46.344a2.811,2.811,0,0,0-2.545,0l-2.18,1.1a4.446,4.446,0,0,1-3.926,0l-1.029-.528A4.346,4.346,0,0,1,7,43Z" transform="translate(-5.646 -29.461)" fill="#a1d51c"/>
          <g id="Сгруппировать_5" data-name="Сгруппировать 5" transform="translate(6.77 2.708)">
            <g id="Сгруппировать_4" data-name="Сгруппировать 4" transform="translate(5.416)">
              <circle id="Эллипс_2" data-name="Эллипс 2" cx="1.5" cy="1.5" r="1.5" transform="translate(9.017 0.938)" fill="#f9e109"/>
              <circle id="Эллипс_3" data-name="Эллипс 3" cx="1.5" cy="1.5" r="1.5" transform="translate(4.017 -0.062)" fill="#f9e109"/>
              <ellipse id="Эллипс_4" data-name="Эллипс 4" cx="1.5" cy="1" rx="1.5" ry="1" transform="translate(0.017 2.938)" fill="#f9e109"/>
              <ellipse id="Эллипс_5" data-name="Эллипс 5" cx="1.5" cy="1" rx="1.5" ry="1" transform="translate(20.017 2.938)" fill="#f9e109"/>
            </g>
            <ellipse id="Эллипс_6" data-name="Эллипс 6" cx="1" cy="1.5" rx="1" ry="1.5" transform="translate(0.432 0.938)" fill="#fcbc04"/>
            <circle id="Эллипс_7" data-name="Эллипс 7" cx="1.5" cy="1.5" r="1.5" transform="translate(20.432 -0.062)" fill="#f9e109"/>
          </g>
          <path id="Контур_38" data-name="Контур 38" d="M17.586,38.862A1.354,1.354,0,0,1,15,38.294a1.384,1.384,0,0,1,.6-1.124h.014a11.77,11.77,0,0,0,1.977,1.692Z" transform="translate(-2.815 -31.524)" fill="#fcbc04"/>
        </g>
      </g>
    </g>
  </g>
</svg>
