<svg xmlns="http://www.w3.org/2000/svg" width="154.797" height="25.68" viewBox="0 0 154.797 25.68">
  <g id="rating" transform="translate(-157.596 -3990)">
    <path id="star" d="M26.727,10.2A1.421,1.421,0,0,0,25.5,9.216l-7.734-.7L14.708,1.356a1.424,1.424,0,0,0-2.619,0L9.031,8.514l-7.736.7a1.426,1.426,0,0,0-.808,2.492l5.846,5.127L4.609,24.429a1.422,1.422,0,0,0,2.118,1.539L13.4,21.981l6.669,3.987a1.424,1.424,0,0,0,2.119-1.539l-1.724-7.594,5.846-5.126a1.425,1.425,0,0,0,.418-1.514Zm0,0" transform="translate(157.595 3989.509)" fill="#ffc107"/>
    <path id="star-2" data-name="star" d="M26.727,10.2A1.421,1.421,0,0,0,25.5,9.216l-7.734-.7L14.708,1.356a1.424,1.424,0,0,0-2.619,0L9.031,8.514l-7.736.7a1.426,1.426,0,0,0-.808,2.492l5.846,5.127L4.609,24.429a1.422,1.422,0,0,0,2.118,1.539L13.4,21.981l6.669,3.987a1.424,1.424,0,0,0,2.119-1.539l-1.724-7.594,5.846-5.126a1.425,1.425,0,0,0,.418-1.514Zm0,0" transform="translate(189.595 3989.509)" fill="#ffc107"/>
    <path id="star-3" data-name="star" d="M26.727,10.2A1.421,1.421,0,0,0,25.5,9.216l-7.734-.7L14.708,1.356a1.424,1.424,0,0,0-2.619,0L9.031,8.514l-7.736.7a1.426,1.426,0,0,0-.808,2.492l5.846,5.127L4.609,24.429a1.422,1.422,0,0,0,2.118,1.539L13.4,21.981l6.669,3.987a1.424,1.424,0,0,0,2.119-1.539l-1.724-7.594,5.846-5.126a1.425,1.425,0,0,0,.418-1.514Zm0,0" transform="translate(221.595 3989.509)" fill="#ffc107"/>
    <path id="star-4" data-name="star" d="M26.727,10.2A1.421,1.421,0,0,0,25.5,9.216l-7.734-.7L14.708,1.356a1.424,1.424,0,0,0-2.619,0L9.031,8.514l-7.736.7a1.426,1.426,0,0,0-.808,2.492l5.846,5.127L4.609,24.429a1.422,1.422,0,0,0,2.118,1.539L13.4,21.981l6.669,3.987a1.424,1.424,0,0,0,2.119-1.539l-1.724-7.594,5.846-5.126a1.425,1.425,0,0,0,.418-1.514Zm0,0" transform="translate(253.595 3989.509)" fill="#ffc107" opacity="0.89"/>
    <path id="star-5" data-name="star" d="M26.727,10.2A1.421,1.421,0,0,0,25.5,9.216l-7.734-.7L14.708,1.356a1.424,1.424,0,0,0-2.619,0L9.031,8.514l-7.736.7a1.426,1.426,0,0,0-.808,2.492l5.846,5.127L4.609,24.429a1.422,1.422,0,0,0,2.118,1.539L13.4,21.981l6.669,3.987a1.424,1.424,0,0,0,2.119-1.539l-1.724-7.594,5.846-5.126a1.425,1.425,0,0,0,.418-1.514Zm0,0" transform="translate(285.595 3989.509)" fill="#ffc107" opacity="0.4"/>
  </g>
</svg>
